<?xml version="1.0" encoding="utf-8"?>
<!-- Generator: Adobe Illustrator 27.6.1, SVG Export Plug-In . SVG Version: 6.00 Build 0)  -->
<svg version="1.1" id="Layer_1" xmlns="http://www.w3.org/2000/svg" xmlns:xlink="http://www.w3.org/1999/xlink" x="0px" y="0px"
	 viewBox="0 0 1920 1080" style="enable-background:new 0 0 1920 1080;" xml:space="preserve">
<style type="text/css">
	.st0{fill:#FFFFFF;}
	.st1{fill:#A5A5A5;}
</style>
<g>
	<g>
		<path class="st0" d="M829.39,340.69h53.21v339.03h-53.21V340.69z"/>
		<path class="st0" d="M1181.27,576.46c0,51.95-39.33,103.27-106.63,103.27H947.82V340.69h92.54c58.47,0,98.01,42.06,98.01,87.07
			c0,36.6-25.45,60.99-38.07,60.99C1138.37,488.76,1181.27,523.67,1181.27,576.46z M1000.82,392.43v84.55l42.06-0.21
			c26.29,0.21,45.64-17.88,45.64-42.06s-21.03-42.27-45.01-42.27H1000.82z M1129.33,572.88c0-25.66-21.88-49.21-60.36-49.21
			l-68.14,0.21v103.9h68.98C1100.3,627.78,1129.33,605.69,1129.33,572.88z"/>
		<path class="st0" d="M1207.4,510.63c0-96.74,78.66-175.82,175.19-175.82c96.32,0,175.4,79.08,175.4,175.82
			c0,95.91-79.08,174.57-175.61,174.57C1286.05,685.19,1207.4,606.54,1207.4,510.63z M1504.15,510.21
			c0-67.09-54.89-121.77-121.77-121.77c-66.88,0-121.35,54.68-121.35,121.77c0,66.67,54.47,121.14,121.35,121.14
			C1449.26,631.35,1504.15,576.88,1504.15,510.21z"/>
	</g>
	<g>
		<polygon class="st0" points="730.47,374.15 730.47,374.15 490.35,614.28 386.13,510.07 386.13,679.53 431.51,679.53 
			431.51,619.63 490.34,678.46 723.83,444.98 723.83,679.53 769.21,679.53 769.21,335.41 		"/>
		<polygon class="st1" points="522.24,547.62 314.04,339.42 314.04,679.53 359.42,679.53 359.42,448.98 490.15,579.71 		"/>
	</g>
	<rect x="617.59" y="588.27" class="st0" width="31.3" height="31.31"/>
	<rect x="617.59" y="630.96" class="st0" width="31.3" height="31.31"/>
	<rect x="658.42" y="588.27" class="st0" width="31.3" height="31.31"/>
	<rect x="658.42" y="630.96" class="st0" width="31.3" height="31.31"/>
</g>
</svg>
